<svg xmlns="http://www.w3.org/2000/svg" version="1.1" xmlns:xlink="http://www.w3.org/1999/xlink" xmlns:svgjs="http://svgjs.dev/svgjs" width="100%" height="100%" viewBox="0 0 1000 600"><rect width="1000" height="600" x="0" y="0" fill="#ffffff"/><g><circle r="166.66666666666666" cx="379.0888315836588" cy="401.31106101811923" fill="#0c0d3b" transform="matrix(0.5884508475933375,0,0,0.5884508475933375,0,63.84816711069773)"/><path d="M436.944607409337 389.3005698179603L436.944607409337 389.3005698179603Q436.944607409337 397.99206938262813 435.1776542011353 405.82397008925193Q433.4107009929336 413.6319930498189 430.0678165449844 420.38939518388764Q426.72493209703526 427.12291957189956 421.9016273935657 432.6386789110157Q417.0783226900962 438.13056050407505 411.06113068378767 442.1658995876709L411.06113068378767 442.1658995876709L442.699144209021 476.31107644886606L428.94556248031574 476.31107644886606Q425.8653332389911 476.31107644886606 423.4536808872564 475.451477590822Q421.04202853552164 474.5918787327779 419.0601756128089 472.44288158766767L419.0601756128089 472.44288158766767L397.40305993930957 448.875546229626Q392.5081219976697 450.4275997233167 387.20726237306457 451.28719858136077Q381.93028049451624 452.14679743940485 376.1757436948323 452.14679743940485L376.1757436948323 452.14679743940485Q362.5893061885246 452.14679743940485 351.41452103395164 447.53839245044634Q340.23973587937866 442.9538652075446 332.2406909503574 434.6205318337284Q324.2416460213362 426.2633207138555 319.8720184929454 414.7064916223741Q315.47851321849794 403.14966253089256 315.47851321849794 389.3005698179603L315.47851321849794 389.3005698179603Q315.47851321849794 375.4753548510848 319.8720184929454 363.9185257596033Q324.2416460213362 352.3378189220651 332.2406909503574 343.95673005613537Q340.23973587937866 335.57564119020566 351.41452103395164 330.9433584551903Q362.5893061885246 326.3110757201751 376.1757436948323 326.3110757201751L376.1757436948323 326.3110757201751Q389.76218120114004 326.3110757201751 400.96084410176974 330.9433584551903Q412.1833847484563 335.57564119020566 420.18242967747756 343.95673005613537Q428.1814746064988 352.3378189220651 432.5511021348895 363.9185257596033Q436.944607409337 375.4753548510848 436.944607409337 389.3005698179603ZM419.8481412326826 389.3005698179603L419.8481412326826 389.3005698179603Q419.8481412326826 377.9586404409899 416.7440342453013 368.93285243152707Q413.63992725791985 359.9070644220643 407.98090144246305 353.67497270124477Q402.2979978809495 347.44288098042523 394.2273197137579 344.09999653247604Q386.1327638005095 340.7332343384701 376.1757436948323 340.7332343384701L376.1757436948323 340.7332343384701Q366.29035682732547 340.7332343384701 358.1958009140771 344.09999653247604Q350.1251227468855 347.44288098042523 344.4183414393151 353.67497270124477Q338.68768238568794 359.9070644220643 335.6074531443633 368.93285243152707Q332.503346156982 377.9586404409899 332.503346156982 389.3005698179603L332.503346156982 389.3005698179603Q332.503346156982 400.6663769409875 335.6074531443633 409.64440945833667Q338.68768238568794 418.62244197568594 344.4183414393151 424.8545336965055Q350.1251227468855 431.086625417325 358.1958009140771 434.40563211921744Q366.29035682732547 437.70076107505304 376.1757436948323 437.70076107505304L376.1757436948323 437.70076107505304Q386.1327638005095 437.70076107505304 394.2273197137579 434.40563211921744Q402.2979978809495 431.086625417325 407.98090144246305 424.8545336965055Q413.63992725791985 418.62244197568594 416.7440342453013 409.64440945833667Q419.8481412326826 400.6663769409875 419.8481412326826 389.3005698179603Z " fill="#019dec" transform="matrix(0.5884508475933375,0,0,0.5884508475933375,0,63.84816711069773)"/><path d="M748.8957062762115 390.48912833742895L748.8957062762115 390.48912833742895Q748.8957062762115 399.0619028981593 747.1528894699092 406.786820634202Q745.4100726636068 414.4881867917812 742.1128516787105 421.1532834969644Q738.8156306938142 427.794828623684 734.0582118441782 433.23524324876286Q729.3007929945421 438.6521062953782 723.365795221729 442.6323230557173L723.365795221729 442.6323230557173L754.5716366859258 476.31108025858634L741.0059274909239 476.31108025858634Q737.9677738691266 476.31108025858634 735.5890644443086 475.46322343389875Q733.2103550194906 474.61536660921115 731.2555740070164 472.49572454749216L731.2555740070164 472.49572454749216L709.8942923405813 449.2503166039734Q705.0662187555546 450.7811692041038 699.8377683366476 451.6290260287914Q694.6328694962042 452.47688285347897 688.9569390864898 452.47688285347897L688.9569390864898 452.47688285347897Q675.5560909407328 452.47688285347897 664.5339522197938 447.9314282100148Q653.5118134988548 443.40952514501424 645.6220347135674 435.1900242612371Q637.7322559282799 426.9469717989964 633.4223170694511 415.54800782264067Q629.0888266321589 404.14904384628494 629.0888266321589 390.48912833742895L629.0888266321589 390.48912833742895Q629.0888266321589 376.8527644070365 633.4223170694511 365.4538004306808Q637.7322559282799 354.03128487586156 645.6220347135674 345.7646808351573Q653.5118134988548 337.4980767944531 664.5339522197938 332.9290705725254Q675.5560909407328 328.36006435059767 688.9569390864898 328.36006435059767L688.9569390864898 328.36006435059767Q702.3577872322469 328.36006435059767 713.4034775316494 332.9290705725254Q724.4727194095154 337.4980767944531 732.362498194803 345.7646808351573Q740.2522769800905 354.03128487586156 744.5622158389192 365.4538004306808Q748.8957062762115 376.8527644070365 748.8957062762115 390.48912833742895ZM732.0327760963133 390.48912833742895L732.0327760963133 390.48912833742895Q732.0327760963133 379.3021285672452 728.9710708960525 370.3996319080252Q725.9093656957917 361.49713524880525 720.3276415999316 355.35017326982006Q714.722365925608 349.2032112908349 706.7619324049298 345.9059903059386Q698.7779473057881 342.5852177425788 688.9569390864898 342.5852177425788L688.9569390864898 342.5852177425788Q679.2065856025823 342.5852177425788 671.2226005034405 345.9059903059386Q663.2621669827624 349.2032112908349 657.6333397299752 355.35017326982006Q651.9809608987244 361.49713524880525 648.9428072769272 370.3996319080252Q645.8811020766663 379.3021285672452 645.8811020766663 390.48912833742895L645.8811020766663 390.48912833742895Q645.8811020766663 401.69967968607637 648.9428072769272 410.5550731883692Q651.9809608987244 419.410466690662 657.6333397299752 425.55742866964727Q663.2621669827624 431.70439064863245 671.2226005034405 434.97806005506516Q679.2065856025823 438.2281778830344 688.9569390864898 438.2281778830344L688.9569390864898 438.2281778830344Q698.7779473057881 438.2281778830344 706.7619324049298 434.97806005506516Q714.722365925608 431.70439064863245 720.3276415999316 425.55742866964727Q725.9093656957917 419.410466690662 728.9710708960525 410.5550731883692Q732.0327760963133 401.69967968607637 732.0327760963133 390.48912833742895ZM766.9597669577504 365.31249095989955L782.0563287528826 365.31249095989955L782.0563287528826 420.0934624661048Q782.0563287528826 429.8438159500124 786.5311286609561 435.1900242612371Q791.0294801474931 440.51268099399823 800.096837855958 440.51268099399823L800.096837855958 440.51268099399823Q806.7148314042141 440.51268099399823 812.5791744416367 437.38032105834674Q818.4199659005959 434.2479611226953 823.3422457994767 428.6426854483716L823.3422457994767 428.6426854483716L823.3422457994767 365.31249095989955L838.438807594609 365.31249095989955L838.438807594609 451.2050976164476L829.4421046215348 451.2050976164476Q826.2155383720292 451.2050976164476 825.3676815473416 448.0727376807961L825.3676815473416 448.0727376807961L824.1901026241644 438.816967344623Q818.5848269498406 445.0110324805353 811.6371113030949 448.77928503470247Q804.6893956563492 452.5710891673332 795.692692683275 452.5710891673332L795.692692683275 452.5710891673332Q788.6507707226751 452.5710891673332 783.281010832987 450.23948289944224Q777.8876993648352 447.9078766315513 774.2372047029858 443.66859250811325Q770.6102616195998 439.42930838467515 768.7732384994433 433.4001042980077Q766.9597669577504 427.3709002113402 766.9597669577504 420.0934624661048L766.9597669577504 420.0934624661048L766.9597669577504 365.31249095989955ZM926.356849999022 396.25926506099745L926.356849999022 451.2050976164476L919.6446501369117 451.2050976164476Q917.4543533398019 451.2050976164476 916.0883617889162 450.52210184100477Q914.7459218164943 449.83910606556196 914.3219934041505 447.6488092684523L914.3219934041505 447.6488092684523L912.6262797547752 439.6648241693106Q909.2348524560248 442.72652936957144 906.0082862065192 445.15234195131654Q902.7817199570135 447.5546029545981 899.2254316090182 449.20321344704627Q895.669143261023 450.87537551795793 891.6418233437569 451.7232323426456Q887.6145034264906 452.5710891673332 882.6922235276097 452.5710891673332L882.6922235276097 452.5710891673332Q877.6757373148747 452.5710891673332 873.3186952991189 451.15799445952047Q868.9616532833631 449.76845133017133 865.7350870338574 446.9658134930095Q862.5085207843518 444.1631756558477 860.6008429288047 439.87678837548253Q858.6931650732575 435.6139526735809 858.6931650732575 429.7496096361582L858.6931650732575 429.7496096361582Q858.6931650732575 424.66246868803256 861.4958029104193 419.95215299532356Q864.2984407475813 415.26538888107814 870.5160574619571 411.6148942192287Q876.7572257547964 407.96439955737924 886.8373013371936 405.6327932894883Q896.9409284980544 403.30118702159734 911.5193555669887 402.97146492310776L911.5193555669887 402.97146492310776L911.5193555669887 396.25926506099745Q911.5193555669887 386.2498442139909 907.2329682866234 381.1391516874017Q902.9465810062583 376.0049075823489 894.5622190732363 376.0049075823489L894.5622190732363 376.0049075823489Q889.0511497127668 376.0049075823489 885.2828971585997 377.394450711698Q881.4910930259689 378.80754541951075 878.7355583457341 380.5268106473495Q875.9800236654994 382.2696274536518 874.0016910745617 383.6827221614645Q871.9998069051604 385.0722652908137 870.0450258926861 385.0722652908137L870.0450258926861 385.0722652908137Q868.5377248710192 385.0722652908137 867.3836975263056 384.27151162305313Q866.2296701815919 383.4707579552926 865.5702259846126 382.2696274536518L865.5702259846126 382.2696274536518L862.8382428828414 377.44155386862514Q869.9743711572955 370.56449295727003 878.1938720410727 367.1730656585196Q886.4133729248498 363.78163835976915 896.4227937718563 363.78163835976915L896.4227937718563 363.78163835976915Q903.6295767817011 363.78163835976915 909.2348524560248 366.16034778458715Q914.816576551885 368.5390572094052 918.6319322629791 372.77834133284324Q922.4472879740734 377.01762545628134 924.4020689865476 383.0468295429488Q926.356849999022 389.05248205115277 926.356849999022 396.25926506099745L926.356849999022 396.25926506099745ZM887.1905750141468 441.972878858738L887.1905750141468 441.972878858738Q891.1707917744859 441.972878858738 894.4680127593822 441.1485736125139Q897.788785322742 440.3478199447534 900.7091810522215 438.8640705015501Q903.6295767817011 437.38032105834674 906.2909051480817 435.26067899662775Q908.9757850929259 433.1410369349087 911.5193555669887 430.432605411601L911.5193555669887 430.432605411601L911.5193555669887 412.5334057793069Q901.0860063076382 412.88667945626014 893.7850169839394 414.20556785021864Q886.507579238704 415.5009046657136 881.9150214383128 417.6205467274326Q877.346015216385 419.74018878915166 875.2734763115932 422.63703294016767Q873.2009374068011 425.51032551272016 873.2009374068011 429.0666138607154L873.2009374068011 429.0666138607154Q873.2009374068011 432.4580411594659 874.2843100161242 434.9309568981381Q875.3912342039108 437.38032105834674 877.2518089025309 438.95827681540425Q879.1359351796144 440.51268099399823 881.6795056536773 441.2427799263681Q884.2230761277401 441.972878858738 887.1905750141468 441.972878858738ZM1001.8161073962195 373.9559202560205L998.424680097469 379.46698961648997Q997.4119622235366 381.3511158935736 995.2923201618178 381.3511158935736L995.2923201618178 381.3511158935736Q994.0205349247863 381.3511158935736 992.3954760108015 380.4090527550318Q990.7939686752806 379.46698961648997 988.4623624073896 378.33651385023984Q986.1307561394987 377.18248650552613 982.9041898899931 376.2168717885208Q979.6776236404874 375.22770549305193 975.2734784678046 375.22770549305193L975.2734784678046 375.22770549305193Q971.4581227567103 375.22770549305193 968.3964175564495 376.2168717885208Q965.3582639346521 377.18248650552613 963.1915187160059 378.8782001549014Q961.0247734973599 380.5739138042766 959.8942977311098 382.8348653367769Q958.740270386396 385.0722652908137 958.740270386396 387.7100420787307L958.740270386396 387.7100420787307Q958.740270386396 391.00726306362697 960.6479482419431 393.2211114392002Q962.5556260974904 395.41140823630985 965.6879860331417 397.03646715029447Q968.8203459687932 398.6379744858155 972.8241143075959 399.8626565659198Q976.804331067935 401.08733864602414 980.9965120344459 402.50043335383685Q985.1886930009568 403.889976483186 989.1689097612959 405.5856901325612Q993.1726781000987 407.28140378193643 996.3050380357499 409.8249742559993Q999.4373979714014 412.3685447300621 1001.3450758269487 416.0661425488387Q1003.2527536824958 419.74018878915166 1003.2527536824958 424.92153605113157L1003.2527536824958 424.92153605113157Q1003.2527536824958 430.8565338239448 1001.1331116207767 435.89657161514344Q999.0134695590577 440.93660940634203 994.8683917494739 444.6342072251186Q990.6997623614263 448.3318050438951 984.6941098532225 450.45144710561414Q978.664905766555 452.5710891673332 970.7751269812675 452.5710891673332L970.7751269812675 452.5710891673332Q961.8019755866569 452.5710891673332 954.5009862629579 449.62714185939006Q947.1999969392591 446.7067461299105 942.1128559911333 442.1377399079828L942.1128559911333 442.1377399079828L945.6926959175922 436.36760318441435Q946.3521401145715 435.26067899662775 947.2942032531132 434.6718895350391Q948.236266391655 434.0831000734505 949.7435674133219 434.0831000734505L949.7435674133219 434.0831000734505Q951.2744200134523 434.0831000734505 952.9701336628276 435.26067899662775Q954.6658473122028 436.4618094982685 957.091659893948 437.89845578454475Q959.4939208972294 439.335102070821 962.932451352907 440.51268099399823Q966.3709818085846 441.713811495639 971.5523290705644 441.713811495639L971.5523290705644 441.713811495639Q975.9564742432474 441.713811495639 979.2536952281437 440.55978415092534Q982.5744677915034 439.42930838467515 984.7647645886132 437.47452737220095Q986.9786129641864 435.5197463597267 988.0384339950458 432.9761758856639Q989.0982550259052 430.432605411601 989.0982550259052 427.5593128390486L989.0982550259052 427.5593128390486Q989.0982550259052 423.97947291258976 987.1905771703582 421.6478666446988Q985.2828993148112 419.31626037680786 982.1505393791597 417.6676498843597Q978.9946278650445 416.0190393919116 974.9673079477784 414.79435731180723Q970.9399880305123 413.5696752317029 966.7478070640013 412.20368368081733Q962.5556260974904 410.8376921299317 958.5283061802241 409.11842690209295Q954.5009862629579 407.37561009579065 951.3686263273065 404.7378333078736Q948.236266391655 402.1236080984201 946.3285885361079 398.26114923039876Q944.4209106805607 394.3986903623774 944.4209106805607 388.8876210019079L944.4209106805607 388.8876210019079Q944.4209106805607 383.9653411030271 946.4463464284256 379.44343803802644Q948.4717821762904 374.8979833945623 952.381344201239 371.45945293888474Q956.2909062261874 368.0209224832072 961.9668366359017 365.99548673534235Q967.642767045616 363.97005098747746 974.9437563693149 363.97005098747746L974.9437563693149 363.97005098747746Q983.422324616191 363.97005098747746 990.1580760567649 366.63137935385805Q996.8938274973386 369.2927077202386 1001.8161073962195 373.9559202560205L1001.8161073962195 373.9559202560205ZM1024.5433806135402 365.31249095989955L1039.6163908302092 365.31249095989955L1039.6163908302092 451.2050976164476L1024.5433806135402 451.2050976164476L1024.5433806135402 365.31249095989955ZM1043.0078181289596 338.3459336191407L1043.0078181289596 338.3459336191407Q1043.0078181289596 340.5597819947139 1042.1364097258083 342.46745985026104Q1041.2414497441937 344.3751377058082 1039.7577003009906 345.85888714901154Q1038.273950857787 347.34263659221483 1036.319169845313 348.1904934169024Q1034.3643888328384 349.0383502415901 1032.1740920357288 349.0383502415901L1032.1740920357288 349.0383502415901Q1029.9602436601558 349.0383502415901 1028.0525658046085 348.1904934169024Q1026.1448879490617 347.34263659221483 1024.6611385058582 345.85888714901154Q1023.1773890626547 344.3751377058082 1022.3295322379671 342.46745985026104Q1021.4816754132794 340.5597819947139 1021.4816754132794 338.3459336191407L1021.4816754132794 338.3459336191407Q1021.4816754132794 336.155636822031 1022.3295322379671 334.1537526526297Q1023.1773890626547 332.1754200616919 1024.6611385058582 330.6916706184886Q1026.1448879490617 329.2079211752853 1028.0525658046085 328.36006435059767Q1029.9602436601558 327.51220752591 1032.1740920357288 327.51220752591L1032.1740920357288 327.51220752591Q1034.3643888328384 327.51220752591 1036.319169845313 328.36006435059767Q1038.273950857787 329.2079211752853 1039.7577003009906 330.6916706184886Q1041.2414497441937 332.1754200616919 1042.1364097258083 334.1537526526297Q1043.0078181289596 336.155636822031 1043.0078181289596 338.3459336191407ZM1128.4058416377734 407.28140378193643L1128.4058416377734 407.28140378193643Q1129.5834205609503 409.33039110826485 1130.478380542565 411.5677910623016Q1131.3733405241796 413.80519101633837 1132.2211973488675 416.11324570576573L1132.2211973488675 416.11324570576573Q1133.0690541735553 413.73453628094774 1133.9875657336333 411.5677910623016Q1134.9296288721753 409.4010458436555 1136.1072077953522 407.2107490465458L1136.1072077953522 407.2107490465458L1177.2282637927015 332.5051421601816Q1178.3351879804882 330.55036114770735 1179.5127669036656 330.12643273536355Q1180.7138974053064 329.7025043230197 1182.904194202416 329.7025043230197L1182.904194202416 329.7025043230197L1195.0332571111417 329.7025043230197L1195.0332571111417 451.2050976164476L1180.6196910914523 451.2050976164476L1180.6196910914523 361.9210636611491Q1180.6196910914523 360.1546952763832 1180.7138974053064 358.1057079500548Q1180.784552140697 356.08027220219 1180.9729647684053 353.9606301404709L1180.9729647684053 353.9606301404709L1139.3337740448578 429.91447068540305Q1137.214131983139 433.7298263964973 1133.3987762720449 433.7298263964973L1133.3987762720449 433.7298263964973L1131.0200668472266 433.7298263964973Q1127.2047111361326 433.7298263964973 1125.0850690744132 429.91447068540305L1125.0850690744132 429.91447068540305L1082.5273667907877 353.7015627773719Q1082.7864341538866 355.9154111529451 1082.9041920462046 358.0350532146642Q1083.045501516986 360.1546952763832 1083.045501516986 361.9210636611491L1083.045501516986 361.9210636611491L1083.045501516986 451.2050976164476L1068.6319354972961 451.2050976164476L1068.6319354972961 329.7025043230197L1080.7374468275584 329.7025043230197Q1082.9512952031318 329.7025043230197 1084.1288741263088 330.12643273536355Q1085.3300046279496 330.55036114770735 1086.4369288157363 332.5051421601816L1086.4369288157363 332.5051421601816L1128.4058416377734 407.28140378193643ZM1257.0210116271915 363.97005098747746L1257.0210116271915 363.97005098747746Q1266.418091434146 363.97005098747746 1274.0252512778707 367.10241092312896Q1281.6088595431324 370.2347708587804 1286.90796469743 376.0049075823489Q1292.2070698517277 381.7750443059174 1295.033259267353 389.9474420327674Q1297.8830002614418 398.1198397596175 1297.8830002614418 408.22346692047824L1297.8830002614418 408.22346692047824Q1297.8830002614418 418.39774881672963 1295.033259267353 426.5230433866526Q1292.2070698517277 434.6718895350391 1286.90796469743 440.4420262586076Q1281.6088595431324 446.2121629821761 1274.0252512778707 449.2974197609004Q1266.418091434146 452.3826765396248 1257.0210116271915 452.3826765396248L1257.0210116271915 452.3826765396248Q1247.6003802417736 452.3826765396248 1240.0167719765122 449.2974197609004Q1232.433163711251 446.2121629821761 1227.086955400026 440.4420262586076Q1221.7407470888015 434.6718895350391 1218.867454516249 426.5230433866526Q1215.970610365233 418.39774881672963 1215.970610365233 408.22346692047824L1215.970610365233 408.22346692047824Q1215.970610365233 398.1198397596175 1218.867454516249 389.9474420327674Q1221.7407470888015 381.7750443059174 1227.086955400026 376.0049075823489Q1232.433163711251 370.2347708587804 1240.0167719765122 367.10241092312896Q1247.6003802417736 363.97005098747746 1257.0210116271915 363.97005098747746ZM1257.0210116271915 440.6068873078524L1257.0210116271915 440.6068873078524Q1269.7388639975056 440.6068873078524 1276.0035838688086 432.08121590404915Q1282.291855318575 423.5555445002459 1282.291855318575 408.2941216558689L1282.291855318575 408.2941216558689Q1282.291855318575 392.96204407610117 1276.0035838688086 384.38926951537087Q1269.7388639975056 375.8400465331041 1257.0210116271915 375.8400465331041L1257.0210116271915 375.8400465331041Q1250.5678791281803 375.8400465331041 1245.8340118570077 378.0303433302138Q1241.0765930073717 380.244191705787 1237.8971299147934 384.38926951537087Q1234.7176668222146 388.5578989034183 1233.139711065157 394.6106545685493Q1231.585306886563 400.66341023368034 1231.585306886563 408.2941216558689L1231.585306886563 408.2941216558689Q1231.585306886563 415.9248330780574 1233.139711065157 421.95403716472487Q1234.7176668222146 427.98324125139237 1237.8971299147934 432.08121590404915Q1241.0765930073717 436.2027421351695 1245.8340118570077 438.3930389322792Q1250.5678791281803 440.6068873078524 1257.0210116271915 440.6068873078524ZM1385.9659037150996 451.2050976164476L1376.9927523204892 451.2050976164476Q1373.7661860709832 451.2050976164476 1372.9183292462958 448.0727376807961L1372.9183292462958 448.0727376807961L1371.5523376954102 437.63938842144574Q1366.0412683349405 444.3280367050925 1358.9757947958774 448.35535662235867Q1351.88676967835 452.3826765396248 1342.7252056560314 452.3826765396248L1342.7252056560314 452.3826765396248Q1335.3535615969417 452.3826765396248 1329.3479090887377 449.55648712399943Q1323.3187050020701 446.7067461299105 1319.079420878632 441.19567676944104Q1314.8401367551942 435.6846074089715 1312.55563364423 427.46510652519436Q1310.2711305332664 419.2456056414172 1310.2711305332664 408.5531890189679L1310.2711305332664 408.5531890189679Q1310.2711305332664 399.0619028981593 1312.8147010073294 390.8895051713092Q1315.358271481392 382.6935558659956 1320.1392419094918 376.6879033577917Q1324.9202123375912 370.6586992711242 1331.7972732489466 367.2201688154467Q1338.6743341603014 363.78163835976915 1347.3884181918133 363.78163835976915L1347.3884181918133 363.78163835976915Q1355.2781969771004 363.78163835976915 1360.8834726514242 366.46651830461326Q1366.4651967472842 369.1278466709938 1370.892893498431 373.9559202560205L1370.892893498431 373.9559202560205L1370.892893498431 326.3110770242693L1385.9659037150996 326.3110770242693L1385.9659037150996 451.2050976164476ZM1347.7416918687663 440.1829588955086L1347.7416918687663 440.1829588955086Q1355.1133359278556 440.1829588955086 1360.6715084452521 436.79153159675815Q1366.2296809626491 433.4001042980077 1370.892893498431 427.2060391620954L1370.892893498431 427.2060391620954L1370.892893498431 385.66105475240226Q1366.7242641103835 380.07933065654214 1361.7784326330388 377.8183791240418Q1356.8090495772312 375.5809791700051 1350.7798454905637 375.5809791700051L1350.7798454905637 375.5809791700051Q1338.7449888956921 375.5809791700051 1332.3154079751444 384.13020215227186Q1325.8622754761332 392.70297671300216 1325.8622754761332 408.5531890189679L1325.8622754761332 408.5531890189679Q1325.8622754761332 416.9611025304534 1327.2989217624095 422.9196518817302Q1328.7355680486858 428.9017528114706 1331.5382058858472 432.76421167949195Q1334.3408437230091 436.6266705475133 1338.4152667972025 438.3930389322792Q1342.489689871396 440.1829588955086 1347.7416918687663 440.1829588955086ZM1446.0930835325294 363.97005098747746L1446.0930835325294 363.97005098747746Q1455.4901633394838 363.97005098747746 1463.097323183209 367.10241092312896Q1470.6809314484703 370.2347708587804 1475.980036602768 376.0049075823489Q1481.2791417570656 381.7750443059174 1484.105331172691 389.9474420327674Q1486.9550721667797 398.1198397596175 1486.9550721667797 408.22346692047824L1486.9550721667797 408.22346692047824Q1486.9550721667797 418.39774881672963 1484.105331172691 426.5230433866526Q1481.2791417570656 434.6718895350391 1475.980036602768 440.4420262586076Q1470.6809314484703 446.2121629821761 1463.097323183209 449.2974197609004Q1455.4901633394838 452.3826765396248 1446.0930835325294 452.3826765396248L1446.0930835325294 452.3826765396248Q1436.6724521471115 452.3826765396248 1429.0888438818502 449.2974197609004Q1421.5052356165888 446.2121629821761 1416.159027305364 440.4420262586076Q1410.8128189941394 434.6718895350391 1407.9395264215868 426.5230433866526Q1405.0426822705708 418.39774881672963 1405.0426822705708 408.22346692047824L1405.0426822705708 408.22346692047824Q1405.0426822705708 398.1198397596175 1407.9395264215868 389.9474420327674Q1410.8128189941394 381.7750443059174 1416.159027305364 376.0049075823489Q1421.5052356165888 370.2347708587804 1429.0888438818502 367.10241092312896Q1436.6724521471115 363.97005098747746 1446.0930835325294 363.97005098747746ZM1446.0930835325294 440.6068873078524L1446.0930835325294 440.6068873078524Q1458.8109359028435 440.6068873078524 1465.0756557741465 432.08121590404915Q1471.363927223913 423.5555445002459 1471.363927223913 408.2941216558689L1471.363927223913 408.2941216558689Q1471.363927223913 392.96204407610117 1465.0756557741465 384.38926951537087Q1458.8109359028435 375.8400465331041 1446.0930835325294 375.8400465331041L1446.0930835325294 375.8400465331041Q1439.6399510335182 375.8400465331041 1434.9060837623456 378.0303433302138Q1430.1486649127096 380.244191705787 1426.9692018201313 384.38926951537087Q1423.7897387275525 388.5578989034183 1422.2117829704953 394.6106545685493Q1420.6573787919015 400.66341023368034 1420.6573787919015 408.2941216558689L1420.6573787919015 408.2941216558689Q1420.6573787919015 415.9248330780574 1422.2117829704953 421.95403716472487Q1423.7897387275525 427.98324125139237 1426.9692018201313 432.08121590404915Q1430.1486649127096 436.2027421351695 1434.9060837623456 438.3930389322792Q1439.6399510335182 440.6068873078524 1446.0930835325294 440.6068873078524Z " fill="#019dec" transform="matrix(0.5884508475933375,0,0,0.5884508475933375,0,63.84816711069773)"/></g></svg>