<svg xmlns="http://www.w3.org/2000/svg" version="1.1" xmlns:xlink="http://www.w3.org/1999/xlink" xmlns:svgjs="http://svgjs.dev/svgjs" width="100%" height="100%" viewBox="0 0 1000 600"><rect width="1000" height="600" x="0" y="0" fill="#ffff"/><g><circle r="166.66666666666666" cx="287.80285135904944" cy="310.0250547928115" fill="#1f3528" transform="matrix(1.0318967619536439,0,0,1.0318967619536439,0,-19.913843509220584)"/><path d="M214.97194329659317 385.02507180189815L214.97194329659317 385.02507180189815L216.3335646065862 374.5437542761381Q227.0365414153684 372.4854895052184 230.58308994372226 368.4956224108203Q234.0979728602158 364.50575531642227 234.0979728602158 354.9427405346109L234.0979728602158 354.9427405346109L234.35129775509824 259.1859302690566Q234.35129775509824 251.90283954118706 232.73635155022282 249.3695905923629Q231.1530709572077 246.868007255399 225.8965793883975 246.868007255399L225.8965793883975 246.868007255399Q224.5349580784045 246.868007255399 222.25503402446273 246.9946697028402Q219.97510997052098 247.0896665384211 218.13850448262343 247.34299143330355L218.13850448262343 247.34299143330355L217.6951859165792 246.42468868935478L219.2784665095943 236.38668972963893Q224.5349580784045 236.60834901266105 232.16637053673736 236.83000829568317Q239.79778299507024 237.08333319056555 244.6109559978362 237.08333319056555L244.6109559978362 237.08333319056555Q248.9174792108373 237.08333319056555 255.88391382010386 236.51335217708012Q262.85034842937034 235.9433711635947 268.99347713026896 235.02506841964592L268.99347713026896 235.02506841964592L268.0751743863202 245.28472666238386Q261.7103864023994 246.20302940633266 258.60715644008985 247.91297244678898Q255.53559208964052 249.6229154872453 254.52229251011082 253.6127825816434Q253.47732731872085 257.6026496760415 253.0340087526766 265.80404314785983L253.0340087526766 265.80404314785983L251.67238744268363 302.7261465769723L289.9561121817892 302.94780585999445Q297.49252780454117 302.94780585999445 304.7756185324107 302.50448729395026Q312.0903748721405 302.061168727906 323.71165442487154 300.66788180605266L323.71165442487154 300.66788180605266L323.9333137078936 259.1859302690566Q323.9333137078936 251.90283954118706 322.35003311487844 249.3695905923629Q320.735086910003 246.868007255399 315.51026095305315 246.868007255399L315.51026095305315 246.868007255399Q313.8953147481777 246.868007255399 311.74205314167716 246.9946697028402Q309.5887915351766 247.0896665384211 307.7521860472791 247.34299143330355L307.7521860472791 247.34299143330355L307.30886748123487 246.42468868935478L308.8921480742499 236.38668972963893Q308.8921480742499 236.38668972963893 313.00867761608924 236.60834901266105Q317.0935415460683 236.83000829568317 322.35003311487844 236.95667074312436Q327.5748590718283 237.08333319056555 331.2480700476234 237.08333319056555L331.2480700476234 237.08333319056555Q336.2512367215512 237.08333319056555 344.00931162732525 236.51335217708012Q351.7673865330994 235.9433711635947 358.6071586949247 235.02506841964592L358.6071586949247 235.02506841964592L357.68885595097584 245.28472666238386Q349.2341375842751 246.42468868935478 346.384232516848 249.05293447375988Q343.53432744942074 251.64951464630465 343.0910088833765 258.26762752510786L343.0910088833765 258.26762752510786Q342.3943654224498 271.5038532827142 341.8243844089644 285.9750379028724Q341.254403395479 300.4462225230306 340.8110848294348 314.2524292941224Q340.36776626339054 328.02697045335395 340.1144413685081 339.42659072306276Q339.8927820854859 350.8262109927716 339.8927820854859 358.1409673325015L339.8927820854859 358.1409673325015Q339.8927820854859 366.56402008734193 341.9510468564056 369.41392515476906Q344.00931162732525 372.2638302221963 349.9307810452018 372.2638302221963L349.9307810452018 372.2638302221963Q352.4323643821657 372.2638302221963 355.4089318970341 372.0421709391742Q358.35383380004225 371.82051165615206 360.19043928793974 371.59885237313L360.19043928793974 371.59885237313L360.633757853984 372.4854895052184L358.6071586949247 382.9984726428388Q352.9073485600702 382.7451477479564 344.4526301933695 382.52348846493425Q336.02957743852903 382.3018291819122 330.55142658669683 382.3018291819122L330.55142658669683 382.3018291819122Q327.82818396671075 382.3018291819122 323.141673411386 382.42849162935335Q318.4551628560613 382.52348846493425 313.4519961821335 382.52348846493425Q308.4488295082058 382.52348846493425 304.33229996636646 382.7451477479564L304.33229996636646 382.7451477479564L306.390564737286 372.4854895052184Q313.67365546515566 372.2638302221963 317.3152008290904 370.4588903461591Q320.98841180488546 368.62228485826154 322.35003311487844 363.36579328945135Q323.71165442487154 358.1409673325015 323.71165442487154 348.1029683727856L323.71165442487154 348.1029683727856L323.71165442487154 313.68244828063695Q318.4551628560613 313.68244828063695 311.86871558911844 313.5557858331958Q305.2506027103152 313.4607889976149 299.0758083975562 313.4607889976149Q292.9326796966576 313.4607889976149 289.0694750497007 313.4607889976149L289.0694750497007 313.4607889976149Q286.7895509957589 313.4607889976149 280.74141913044116 313.77744511621785Q274.69328726512344 314.1257668466812 266.8402155237684 314.69574786016665Q258.9554781705532 315.26572887365205 251.19740326477907 315.96237233457873L251.19740326477907 315.96237233457873L250.3107661326906 356.7793460225085Q250.3107661326906 365.8990422382755 252.33736529175 369.0656034243058Q254.3956300626696 372.2638302221963 260.3170994805462 372.2638302221963L260.3170994805462 372.2638302221963Q262.85034842937034 372.2638302221963 265.7952503323785 372.0421709391742Q268.7718178472469 371.82051165615206 270.5767577232841 371.59885237313L270.5767577232841 371.59885237313L271.0517419011886 372.4854895052184L268.99347713026896 382.9984726428388Q268.99347713026896 382.7451477479564 265.5735910493563 382.6501509123755Q262.15370496844366 382.52348846493425 257.5938568605602 382.42849162935335Q253.0340087526766 382.3018291819122 249.61412267176397 382.3018291819122L249.61412267176397 382.3018291819122Q242.77435050993864 382.3018291819122 234.66795387370126 382.7451477479564Q226.59322284932415 383.2201319258609 220.89341271446972 383.79011293934633Q215.1936025796153 384.36009395283185 214.97194329659317 385.02507180189815Z " fill="#ffff" transform="matrix(1.0318967619536439,0,0,1.0318967619536439,0,-19.913843509220584)"/><path d="M537.8028452355711 348.0827765787646L537.8028452355711 348.0827765787646L538.7620957122097 340.69877872370927Q546.3022506216015 339.2487489334416 548.8007634909858 336.4379219553843Q551.2769682097505 333.627094977327 551.2769682097505 326.8900334902372L551.2769682097505 326.8900334902372L551.4554334147066 259.4301860168615Q551.4554334147066 254.29931137437592 550.317717733112 252.51465932481574Q549.2023102021369 250.75231542587503 545.4991571992994 250.75231542587503L545.4991571992994 250.75231542587503Q544.5399067226608 250.75231542587503 542.9337198780566 250.84154802835303Q541.3275330334525 250.90847248021154 540.0336602975212 251.08693768516758L540.0336602975212 251.08693768516758L539.7213461888482 250.440001317202L540.8367537198234 243.36831757081967Q544.5399067226608 243.5244746251562 549.916171021961 243.6806316794927Q555.2924353212611 243.85909688444875 558.6832742154254 243.85909688444875L558.6832742154254 243.85909688444875Q561.7171826996778 243.85909688444875 566.6249758359684 243.4575501732977Q571.532768972259 243.05600346214663 575.8605501924424 242.40906709418107L575.8605501924424 242.40906709418107L575.2136138244769 249.63690789489988Q570.7296755499568 250.28384426286547 568.5434767892456 251.4884843963186Q566.3795861791539 252.69312452977175 565.6657253593297 255.50395150782907Q564.9295563888861 258.3147784858864 564.6172422802131 264.09258949633755L564.6172422802131 264.09258949633755L563.6579918035745 290.1038931186775L590.628545902553 290.260050173014Q595.9378857499946 290.260050173014 601.0687603924803 289.947736064341Q606.2219431855854 289.63542195566794 614.4090344629428 288.65386332840984L614.4090344629428 288.65386332840984L614.5651915172793 259.4301860168615Q614.5651915172793 254.29931137437592 613.4497839863042 252.51465932481574Q612.3120683047096 250.75231542587503 608.6312234524917 250.75231542587503L608.6312234524917 250.75231542587503Q607.4935077708969 250.75231542587503 605.9765535287709 250.84154802835303Q604.4595992866446 250.90847248021154 603.1657265507135 251.08693768516758L603.1657265507135 251.08693768516758L602.8534124420405 250.440001317202L603.9688199730156 243.36831757081967Q603.9688199730156 243.36831757081967 606.8688795535509 243.5244746251562Q609.7466309834667 243.6806316794927 613.4497839863042 243.76986428197074Q617.1306288385222 243.85909688444875 619.7183743103844 243.85909688444875L619.7183743103844 243.85909688444875Q623.2430621082658 243.85909688444875 628.7085590100439 243.4575501732977Q634.1740559118222 243.05600346214663 638.9926164456346 242.40906709418107L638.9926164456346 242.40906709418107L638.345680077669 249.63690789489988Q632.3894038622618 250.440001317202 630.3816703065065 252.2915778186207Q628.3739367507515 254.1208461694199 628.0616226420784 258.78324964889595L628.0616226420784 258.78324964889595Q627.5708433284493 268.108056607848 627.1692966172982 278.3028814409607Q626.7677499061472 288.4977062740733 626.4554357974741 298.2240599441764Q626.1431216888011 307.9281054636601 625.9646564838451 315.95903968668097Q625.8084994295086 323.98997390970186 625.8084994295086 329.14315670280695L625.8084994295086 329.14315670280695Q625.8084994295086 335.0771247675946 627.2585292197763 337.08485832334986Q628.7085590100439 339.0925918791051 632.8801831758908 339.0925918791051L632.8801831758908 339.0925918791051Q634.6425270748315 339.0925918791051 636.7394932330648 338.9364348247686Q638.8141512406786 338.78027777043206 640.1080239766096 338.62412071609555L640.1080239766096 338.62412071609555L640.4203380852827 339.2487489334416L638.9926164456346 346.6550549391165Q634.9771493341242 346.4765897341604 629.020873118717 346.3204326798239Q623.0869050539293 346.1642756254874 619.2275949967553 346.1642756254874L619.2275949967553 346.1642756254874Q617.3090940434781 346.1642756254874 614.0074877517918 346.2535082279654Q610.7058814601053 346.3204326798239 607.1811936622239 346.3204326798239Q603.6565058643425 346.3204326798239 600.7564462838072 346.4765897341604L600.7564462838072 346.4765897341604L602.2064760740749 339.2487489334416Q607.3373507165604 339.0925918791051 609.9027880378032 337.82102729379346Q612.4905335096655 336.5271545578623 613.4497839863042 332.82400155502484Q614.4090344629428 329.14315670280695 614.4090344629428 322.07147295642466L614.4090344629428 322.07147295642466L614.4090344629428 297.8225132330254Q610.7058814601053 297.8225132330254 606.0657861312488 297.73328063054737Q601.4033826517727 297.6663561786889 597.0532932809698 297.6663561786889Q592.7255120607863 297.6663561786889 590.0039176852069 297.6663561786889L590.0039176852069 297.6663561786889Q588.3977308406029 297.6663561786889 584.1368740722778 297.8894376848839Q579.8760173039528 298.13482734169844 574.3435959503163 298.53637405284945Q568.7888664460601 298.9379207640005 563.323369544282 299.42870007762957L563.323369544282 299.42870007762957L562.6987413269359 328.18390622616835Q562.6987413269359 334.6086536045851 564.1264629665841 336.8394686665353Q565.5764927568517 339.0925918791051 569.7481169226987 339.0925918791051L569.7481169226987 339.0925918791051Q571.532768972259 339.0925918791051 573.6074269798726 338.9364348247686Q575.7043931381058 338.78027777043206 576.9759577234174 338.62412071609555L576.9759577234174 338.62412071609555L577.3105799827101 339.2487489334416L575.8605501924424 346.6550549391165Q575.8605501924424 346.4765897341604 573.451269925536 346.40966528230194Q571.0419896586299 346.3204326798239 567.8296159694214 346.2535082279654Q564.6172422802131 346.1642756254874 562.2079620133068 346.1642756254874L562.2079620133068 346.1642756254874Q557.3894014794943 346.1642756254874 551.6785149209016 346.4765897341604Q545.9899365129285 346.811211993453 541.974469401418 347.212758704604Q537.9590022899076 347.61430541575504 537.8028452355711 348.0827765787646ZM655.0544848916765 348.0827765787646L655.0544848916765 348.0827765787646L655.6791131090225 341.50187214601135Q660.4976736428351 340.2303075606997 662.5946398010684 337.73179469131543Q664.6916059593015 335.23328182193114 664.6916059593015 331.0616576560842L664.6916059593015 331.0616576560842L664.6916059593015 290.260050173014Q664.6916059593015 285.77611189849404 663.2415761690339 283.67914574026076Q661.7915463787662 281.60448773264704 658.7353297438943 281.60448773264704L658.7353297438943 281.60448773264704Q657.4637651585828 281.60448773264704 656.0806598201735 281.9168018413201Q654.719862632384 282.2291159499931 654.719862632384 282.2291159499931L654.719862632384 282.2291159499931L655.3667990003495 276.29514788520544Q659.3822661118598 275.6482115172399 663.4869658258484 274.8451180949378Q667.5693573892173 274.0420246726357 670.9378881327622 273.3281638528116Q674.3287270269267 272.591994882368 676.4033850345403 272.12352371935845Q678.5003511927736 271.6327444057294 678.5003511927736 271.6327444057294L678.5003511927736 271.6327444057294L679.3034446150756 273.57355350962615Q678.6565082471101 275.1797403542303 677.942647427286 280.7121617078669Q677.2064784568425 286.2445830615036 676.738007293833 294.208592832666Q676.2472279802038 302.1502944532089 675.9349138715307 311.5420258640195Q675.6002916122383 320.95606542544954 675.6002916122383 330.41472128811864L675.6002916122383 330.41472128811864Q675.6002916122383 335.0771247675946 676.8941643481695 337.2410153776864Q678.1657289334811 339.42721413839763 681.2219455683529 339.42721413839763L681.2219455683529 339.42721413839763Q682.6719753586207 339.42721413839763 684.7689415168537 339.2487489334416Q686.8435995244675 339.0925918791051 686.8435995244675 339.0925918791051L686.8435995244675 339.0925918791051L687.17822178376 339.73952824707067L685.884349047829 346.6550549391165Q685.884349047829 346.6550549391165 684.5235518600392 346.56582233663846Q683.1627546722497 346.4765897341604 680.9765559115384 346.40966528230194Q678.8126653014466 346.3204326798239 676.336460582682 346.2535082279654Q673.8379477132975 346.1642756254874 671.5848245007279 346.1642756254874L671.5848245007279 346.1642756254874Q668.216293757183 346.1642756254874 664.356983700009 346.6550549391165Q660.4976736428351 347.12352610212605 657.7760792672558 347.61430541575504Q655.0544848916765 348.0827765787646 655.0544848916765 348.0827765787646ZM669.1755442338216 252.69312452977175L669.1755442338216 252.69312452977175Q665.160077122311 252.69312452977175 663.2415761690339 250.10537905790943Q661.3007670651372 247.53994173666666 661.3007670651372 244.48372510179482L661.3007670651372 244.48372510179482Q661.3007670651372 240.64672319524038 664.044669591336 237.83589621718306Q666.7662639669153 235.02506923912574 670.7817310784257 235.02506923912574L670.7817310784257 235.02506923912574Q674.6410411355997 235.02506923912574 676.6487746913548 237.5012739578905Q678.6565082471101 239.9997868272748 678.6565082471101 243.21216051648315L678.6565082471101 243.21216051648315Q678.6565082471101 247.0714705736571 676.0018383233893 249.88229755171443Q673.3471683996685 252.69312452977175 669.1755442338216 252.69312452977175ZM727.4890499532011 385.02507400466084L727.4890499532011 385.02507400466084Q719.9265868931899 385.02507400466084 714.4833981420312 382.45963668341807Q709.0179012402531 379.89419936217524 706.0509172078592 375.07563882836274Q703.061625024846 370.2570782945501 703.061625024846 363.67617386179694L703.061625024846 363.67617386179694Q705.3147482374158 360.9322713355981 709.5756050057406 357.00603682656566Q713.8364617740657 353.07980231753317 718.9673364165513 349.22049226035926L718.9673364165513 349.22049226035926L718.9673364165513 348.26124178372066Q710.6240880848574 346.811211993453 706.2070742621958 342.79574488194254Q701.7900604395342 338.78027777043206 701.4554381802417 332.51168744635186L701.4554381802417 332.51168744635186Q704.355497760777 329.7900930707725 707.7240285043218 327.13542314705177Q711.0925592478669 324.48075322333096 714.9518693050408 322.2276300107612L714.9518693050408 322.2276300107612L714.9518693050408 319.9745067981914L723.3174257873542 322.7184093243902Q718.3204000485856 325.283846645633 716.1565094384938 327.2915802013883Q713.9926188284022 329.29931375714347 713.9926188284022 331.39627991537674L713.9926188284022 331.39627991537674Q713.9926188284022 334.6086536045851 717.8519288855761 336.12560784671126Q721.7112389427501 337.64256208883745 727.7344396100158 338.37873105928105Q733.7576402772814 339.0925918791051 740.5839343668491 339.8956853014072Q747.410228456417 340.69877872370927 753.4334291236827 342.39419817079147Q759.4566297909483 344.0673094672542 763.2936316975027 347.36891575894055Q767.1529417546766 350.6705220506269 767.1529417546766 356.6044901154146L767.1529417546766 356.6044901154146Q767.1529417546766 361.9138299628562 763.8736436136097 367.0447046053418Q760.5720373219234 372.1755792478274 754.8611507633308 376.1910463593378Q749.1725723553576 380.2065134708483 742.1008886089754 382.6157937377546Q735.029204862593 385.02507400466084 727.4890499532011 385.02507400466084ZM732.9545468549794 377.1726049865959L732.9545468549794 377.1726049865959Q739.2008290284401 377.1726049865959 744.6663259302182 374.98640622588465Q750.1318228319964 372.82251561579295 753.5003535755412 369.14167076357506Q756.8688843190861 365.4385177607376 756.8688843190861 361.26689359489063L756.8688843190861 361.26689359489063Q756.8688843190861 358.05451990568224 754.4596040521798 356.11371080178554Q752.0503237852735 354.19520984850834 745.4024949006617 352.67825560638215Q738.7323578654306 351.13899321363647 725.882863108597 349.5328063690323L725.882863108597 349.5328063690323Q721.0643025747844 352.9013371125772 718.4988652535416 357.00603682656566Q715.9111197816793 361.1107365405541 715.9111197816793 365.1262036520646L715.9111197816793 365.1262036520646Q715.9111197816793 370.56939240322316 720.5735232611554 373.8709986949096Q725.2359267406315 377.1726049865959 732.9545468549794 377.1726049865959ZM733.5791750723255 318.2121628992507L733.5791750723255 318.2121628992507Q740.9854810780001 318.2121628992507 745.2240296957058 313.5497594197747Q749.4848864640306 308.90966409091817 749.4848864640306 300.7002646629412L749.4848864640306 300.7002646629412Q749.4848864640306 291.3977658546087 744.3540118215452 285.6199548441575Q739.2008290284401 279.81983568308686 731.0137377510827 279.81983568308686L731.0137377510827 279.81983568308686Q723.6297398960272 279.81983568308686 719.3688831277021 284.63839621689937Q715.1080263593773 289.4569567507119 715.1080263593773 297.6663561786889L715.1080263593773 297.6663561786889Q715.1080263593773 306.8126979326849 720.2612091524824 312.5235844912776Q725.392083794968 318.2121628992507 733.5791750723255 318.2121628992507ZM729.8983302201074 325.283846645633L729.8983302201074 325.283846645633Q722.0235530514232 325.283846645633 716.0003523841573 322.16070555890263Q709.9771517168916 319.01525632155284 706.5193883708688 313.4828349679162Q703.061625024846 307.9281054636601 703.061625024846 300.8787298678972L703.061625024846 300.8787298678972Q703.061625024846 292.8477956448763 707.1663247388343 286.2445830615036Q711.2710244528229 279.66367862875035 718.0973185423906 275.6482115172399Q724.9236126319585 271.6327444057294 732.9545468549794 271.6327444057294L732.9545468549794 271.6327444057294Q737.4384851294993 271.6327444057294 741.5431848434879 272.5250704305095Q745.6255764068568 273.39508830467014 748.6817930417286 273.39508830467014L748.6817930417286 273.39508830467014Q751.894166730937 273.0827741959971 757.7612103438661 271.7889014600659Q763.6282539567952 270.5173368747543 770.8560947575141 268.5765277708576L770.8560947575141 268.5765277708576L771.3245659205237 269.22346413882315L769.5622220215829 278.21364883848264Q766.0375342237015 278.7044281521117 762.1782241665277 279.0167422607847Q758.3189141093536 279.3513645200773 755.7534767881108 279.66367862875035L755.7534767881108 279.66367862875035L755.1065404201453 280.46677205105243Q761.5312877985622 287.5384557974347 761.5312877985622 296.8632627563868L761.5312877985622 296.8632627563868Q761.5312877985622 304.7157317744517 757.2704310302371 311.1404791528684Q753.0318824125317 317.56522653128513 745.8709660636713 321.4245365884591Q738.7323578654306 325.283846645633 729.8983302201074 325.283846645633ZM810.6761436133262 348.0827765787646L810.6761436133262 348.0827765787646Q801.5298018593302 348.0827765787646 794.4581181129478 343.5988383042446Q787.3864343665656 339.0925918791051 783.460199857533 330.99473320422567Q779.5339653485006 322.87456637872674 779.5339653485006 312.43435188879954L779.5339653485006 312.43435188879954Q779.5339653485006 300.8787298678972 784.4194503341718 291.6431555114232Q789.3272434704623 282.4075811549491 797.8266488564926 277.00900870502954Q806.3483623931428 271.6327444057294 816.7885768830698 271.6327444057294L816.7885768830698 271.6327444057294Q825.9349186370658 271.6327444057294 833.0066023834482 276.1389908308689Q840.0782861298306 280.62292910538895 844.004520638863 288.65386332840984Q847.9530632985148 296.6847975514308 847.9530632985148 307.303477246314L847.9530632985148 307.303477246314Q847.9530632985148 318.7029422128798 843.0452701622243 328.00544102121233Q838.1597851765533 337.3302479801644 829.7273042423814 342.7065122794645Q821.2948233082094 348.0827765787646 810.6761436133262 348.0827765787646ZM815.1823900384658 340.2303075606997L815.1823900384658 340.2303075606997Q824.1725747381253 340.2303075606997 829.4819145855669 332.9132341575029Q834.768946282389 325.596160754306 834.768946282389 313.08128825676516L834.768946282389 313.08128825676516Q834.768946282389 303.44416718914005 831.8911948524732 296.0601693340847Q828.9911352719379 288.65386332840984 823.8602606294522 284.48223916256285Q818.7070778363471 280.3106149967159 811.9700163492574 280.3106149967159L811.9700163492574 280.3106149967159Q802.9798316495977 280.3106149967159 797.6704918021561 287.69461285177124Q792.3834601053342 295.07861070682657 792.3834601053342 307.77194840932356L792.3834601053342 307.77194840932356Q792.3834601053342 317.4090694769486 795.26121153525 324.72614288014546Q798.1612711157853 332.0209081327228 803.2921457582707 336.12560784671126Q808.4453285513758 340.2303075606997 815.1823900384658 340.2303075606997Z " fill="#1f3528" transform="matrix(1.0318967619536439,0,0,1.0318967619536439,0,-19.913843509220584)"/></g></svg>